<svg xmlns="http://www.w3.org/2000/svg" viewBox="0 0 1600 700" width="1600" height="700" font-family="Inter, Helvetica, Arial, sans-serif" role="img" aria-labelledby="t">
<title id="t">Gujarat guide within Kudozz's India location guides</title>
<rect width="1600" height="700" fill="#FAF1E2"/>
<text x="70" y="90" font-size="20" font-weight="700" fill="#150F0B" opacity=".75">INFLUENCER MARKETING AGENCIES BY LOCATION</text>
<path d="M800.0 250 L800.0 320" stroke="#150F0B" stroke-width="3" stroke-opacity=".35"/><path d="M800.0 420 L350.0 500" stroke="#150F0B" stroke-width="3" stroke-opacity=".35"/><path d="M800.0 420 L650.0 500" stroke="#150F0B" stroke-width="3" stroke-opacity=".35"/><path d="M800.0 420 L950.0 500" stroke="#150F0B" stroke-width="3" stroke-opacity=".35"/><path d="M800.0 420 L1250.0 500" stroke="#150F0B" stroke-width="3" stroke-opacity=".35"/><rect x="640.0" y="160" width="340" height="100" fill="#150F0B"/><rect x="630.0" y="150" width="340" height="100" fill="#FFFFFF" stroke="#150F0B" stroke-width="4"/><text x="800.0" y="209.0" font-size="24" font-weight="700" text-anchor="middle" fill="#150F0B">India</text><rect x="660.0" y="330" width="300" height="100" fill="#150F0B"/><rect x="650.0" y="320" width="300" height="100" fill="#FF4D1C" stroke="#150F0B" stroke-width="4"/><text x="800.0" y="362.0" font-size="28" font-weight="700" text-anchor="middle" fill="#150F0B">Gujarat</text><text x="800.0" y="392.0" font-size="18" text-anchor="middle" fill="#150F0B" opacity=".7">State guide</text><rect x="230.0" y="510" width="260" height="90" fill="#150F0B"/><rect x="220.0" y="500" width="260" height="90" fill="#FFFFFF" stroke="#150F0B" stroke-width="4"/><text x="350.0" y="554.0" font-size="24" font-weight="700" text-anchor="middle" fill="#150F0B">Ahmedabad</text><rect x="530.0" y="510" width="260" height="90" fill="#150F0B"/><rect x="520.0" y="500" width="260" height="90" fill="#FFFFFF" stroke="#150F0B" stroke-width="4"/><text x="650.0" y="554.0" font-size="24" font-weight="700" text-anchor="middle" fill="#150F0B">Surat</text><rect x="830.0" y="510" width="260" height="90" fill="#150F0B"/><rect x="820.0" y="500" width="260" height="90" fill="#FFFFFF" stroke="#150F0B" stroke-width="4"/><text x="950.0" y="554.0" font-size="24" font-weight="700" text-anchor="middle" fill="#150F0B">Vadodara</text><rect x="1130.0" y="510" width="260" height="90" fill="#150F0B"/><rect x="1120.0" y="500" width="260" height="90" fill="#FFFFFF" stroke="#150F0B" stroke-width="4"/><text x="1250.0" y="554.0" font-size="24" font-weight="700" text-anchor="middle" fill="#150F0B">Rajkot</text>
</svg>
