<svg xmlns="http://www.w3.org/2000/svg" viewBox="0 0 1600 700" width="1600" height="700" font-family="Inter, Helvetica, Arial, sans-serif" role="img" aria-labelledby="t">
<title id="t">Coordinating many creators: Standardise shared work, keep relationships personal, stagger go-lives.</title>
<defs><marker id="a" viewBox="0 0 10 10" refX="9" refY="5" markerWidth="7" markerHeight="7" orient="auto-start-reverse"><path d="M0 0 L10 5 L0 10 z" fill="#150F0B"/></marker></defs>
<rect width="1600" height="700" fill="#FAF1E2"/>
<text x="70" y="90" font-size="20" font-weight="700" text-anchor="start" fill="#150F0B" opacity=".75">COORDINATING MANY CREATORS</text>
<rect x="82" y="242" width="260" height="250" fill="#150F0B"/>
<rect x="70" y="230" width="260" height="250" fill="#5A2EEA" stroke="#150F0B" stroke-width="4"/>
<text x="96" y="282" font-size="26" font-weight="700" fill="#FAF1E2">Group</text>
<text x="96" y="324" font-size="20" fill="#FAF1E2" opacity=".85">Waves, languages,</text>
<text x="96" y="354" font-size="20" fill="#FAF1E2" opacity=".85">regions</text>
<path d="M334 355 L366 355" stroke="#150F0B" stroke-width="4" marker-end="url(#a)"/>
<rect x="382" y="242" width="260" height="250" fill="#150F0B"/>
<rect x="370" y="230" width="260" height="250" fill="#FF4D1C" stroke="#150F0B" stroke-width="4"/>
<text x="396" y="282" font-size="26" font-weight="700" fill="#150F0B">Shared</text>
<text x="396" y="324" font-size="20" fill="#150F0B" opacity=".85">Kickoffs, FAQ,</text>
<text x="396" y="354" font-size="20" fill="#150F0B" opacity=".85">shipping</text>
<path d="M634 355 L666 355" stroke="#150F0B" stroke-width="4" marker-end="url(#a)"/>
<rect x="682" y="242" width="260" height="250" fill="#150F0B"/>
<rect x="670" y="230" width="260" height="250" fill="#CCFF3D" stroke="#150F0B" stroke-width="4"/>
<text x="696" y="282" font-size="26" font-weight="700" fill="#150F0B">Personal</text>
<text x="696" y="324" font-size="20" fill="#150F0B" opacity=".85">Individual</text>
<text x="696" y="354" font-size="20" fill="#150F0B" opacity=".85">feedback</text>
<path d="M934 355 L966 355" stroke="#150F0B" stroke-width="4" marker-end="url(#a)"/>
<rect x="982" y="242" width="260" height="250" fill="#150F0B"/>
<rect x="970" y="230" width="260" height="250" fill="#150F0B" stroke="#150F0B" stroke-width="4"/>
<text x="996" y="282" font-size="26" font-weight="700" fill="#FAF1E2">Go-lives</text>
<text x="996" y="324" font-size="20" fill="#FAF1E2" opacity=".85">Burst, staggered</text>
<text x="996" y="354" font-size="20" fill="#FAF1E2" opacity=".85">or waves</text>
<path d="M1234 355 L1266 355" stroke="#150F0B" stroke-width="4" marker-end="url(#a)"/>
<rect x="1282" y="242" width="260" height="250" fill="#150F0B"/>
<rect x="1270" y="230" width="260" height="250" fill="#FFFFFF" stroke="#150F0B" stroke-width="4"/>
<text x="1296" y="282" font-size="26" font-weight="700" fill="#150F0B">Rhythm</text>
<text x="1296" y="324" font-size="20" fill="#150F0B" opacity=".85">Daily checks in</text>
<text x="1296" y="354" font-size="20" fill="#150F0B" opacity=".85">live windows</text>
<rect x="70" y="560" width="1460" height="70" fill="#FFFFFF" stroke="#150F0B" stroke-width="4"/>
<text x="800" y="606" font-size="26" font-weight="700" text-anchor="middle" fill="#150F0B">Standardise shared work, keep relationships personal, stagger go-lives.</text>
</svg>
