<svg xmlns="http://www.w3.org/2000/svg" viewBox="0 0 1600 700" width="1600" height="700" font-family="Inter, Helvetica, Arial, sans-serif" role="img" aria-labelledby="t">
<title id="t">Pan-India national and regional creator layers</title>
<defs><marker id="a" viewBox="0 0 10 10" refX="9" refY="5" markerWidth="7" markerHeight="7" orient="auto-start-reverse"><path d="M0 0 L10 5 L0 10 z" fill="#150F0B"/></marker></defs>
<rect width="1600" height="700" fill="#FAF1E2"/>
<text x="70" y="90" font-size="20" font-weight="700" text-anchor="start" fill="#150F0B" opacity=".75">PAN-INDIA AND MULTI-CITY CAMPAIGNS</text>
<rect x="82" y="152" width="520" height="180" rx="0" fill="#150F0B" stroke="#150F0B" stroke-width="0"/>
<rect x="70" y="140" width="520" height="180" rx="0" fill="#150F0B" stroke="#150F0B" stroke-width="4"/>
<text x="96" y="196" font-size="30" font-weight="700" text-anchor="start" fill="#FAF1E2">National layer</text>
<text x="96" y="228" font-size="22" text-anchor="start" fill="#FAF1E2" opacity=".85">Hindi and English creators</text>
<text x="96" y="264" font-size="22" text-anchor="start" fill="#FAF1E2" opacity=".85">Reach and launch visibility</text>
<rect x="82" y="392" width="340" height="120" rx="0" fill="#150F0B" stroke="#150F0B" stroke-width="0"/>
<rect x="70" y="380" width="340" height="120" rx="0" fill="#FF4D1C" stroke="#150F0B" stroke-width="4"/>
<text x="96" y="430" font-size="24" font-weight="700" text-anchor="start" fill="#150F0B">Chennai</text>
<text x="96" y="462" font-size="20" text-anchor="start" fill="#150F0B" opacity=".85">Tamil creators</text>
<rect x="452" y="392" width="340" height="120" rx="0" fill="#150F0B" stroke="#150F0B" stroke-width="0"/>
<rect x="440" y="380" width="340" height="120" rx="0" fill="#5A2EEA" stroke="#150F0B" stroke-width="4"/>
<text x="466" y="430" font-size="24" font-weight="700" text-anchor="start" fill="#FAF1E2">Hyderabad</text>
<text x="466" y="462" font-size="20" text-anchor="start" fill="#FAF1E2" opacity=".85">Telugu creators</text>
<rect x="822" y="392" width="340" height="120" rx="0" fill="#150F0B" stroke="#150F0B" stroke-width="0"/>
<rect x="810" y="380" width="340" height="120" rx="0" fill="#CCFF3D" stroke="#150F0B" stroke-width="4"/>
<text x="836" y="430" font-size="24" font-weight="700" text-anchor="start" fill="#150F0B">Bengaluru</text>
<text x="836" y="462" font-size="20" text-anchor="start" fill="#150F0B" opacity=".85">Kannada creators</text>
<rect x="1192" y="392" width="340" height="120" rx="0" fill="#150F0B" stroke="#150F0B" stroke-width="0"/>
<rect x="1180" y="380" width="340" height="120" rx="0" fill="#FF4D1C" stroke="#150F0B" stroke-width="4"/>
<text x="1206" y="430" font-size="24" font-weight="700" text-anchor="start" fill="#150F0B">Kochi</text>
<text x="1206" y="462" font-size="20" text-anchor="start" fill="#150F0B" opacity=".85">Malayalam creators</text>
<rect x="82" y="542" width="340" height="120" rx="0" fill="#150F0B" stroke="#150F0B" stroke-width="0"/>
<rect x="70" y="530" width="340" height="120" rx="0" fill="#5A2EEA" stroke="#150F0B" stroke-width="4"/>
<text x="96" y="580" font-size="24" font-weight="700" text-anchor="start" fill="#FAF1E2">Mumbai · Pune</text>
<text x="96" y="612" font-size="20" text-anchor="start" fill="#FAF1E2" opacity=".85">Marathi creators</text>
<rect x="452" y="542" width="340" height="120" rx="0" fill="#150F0B" stroke="#150F0B" stroke-width="0"/>
<rect x="440" y="530" width="340" height="120" rx="0" fill="#CCFF3D" stroke="#150F0B" stroke-width="4"/>
<text x="466" y="580" font-size="24" font-weight="700" text-anchor="start" fill="#150F0B">Kolkata</text>
<text x="466" y="612" font-size="20" text-anchor="start" fill="#150F0B" opacity=".85">Bengali creators</text>
<rect x="822" y="542" width="340" height="120" rx="0" fill="#150F0B" stroke="#150F0B" stroke-width="0"/>
<rect x="810" y="530" width="340" height="120" rx="0" fill="#FF4D1C" stroke="#150F0B" stroke-width="4"/>
<text x="836" y="580" font-size="24" font-weight="700" text-anchor="start" fill="#150F0B">Ahmedabad</text>
<text x="836" y="612" font-size="20" text-anchor="start" fill="#150F0B" opacity=".85">Gujarati creators</text>
<rect x="1192" y="542" width="340" height="120" rx="0" fill="#150F0B" stroke="#150F0B" stroke-width="0"/>
<rect x="1180" y="530" width="340" height="120" rx="0" fill="#5A2EEA" stroke="#150F0B" stroke-width="4"/>
<text x="1206" y="580" font-size="24" font-weight="700" text-anchor="start" fill="#FAF1E2">Chandigarh</text>
<text x="1206" y="612" font-size="20" text-anchor="start" fill="#FAF1E2" opacity=".85">Punjabi creators</text>
<rect x="692" y="152" width="850" height="180" rx="0" fill="#150F0B" stroke="#150F0B" stroke-width="0"/>
<rect x="680" y="140" width="850" height="180" rx="0" fill="#FFFFFF" stroke="#150F0B" stroke-width="4"/>
<text x="706" y="194" font-size="28" font-weight="700" text-anchor="start" fill="#150F0B">One core brief, localized</text>
<text x="706" y="226" font-size="22" text-anchor="start" fill="#150F0B" opacity=".85">Native-speaker review · shipping and approvals per region</text>
<text x="706" y="262" font-size="22" text-anchor="start" fill="#150F0B" opacity=".85">Results measured market by market</text>
</svg>